<svg xmlns="http://www.w3.org/2000/svg" xmlns:xlink="http://www.w3.org/1999/xlink" width="218" height="32.487" viewBox="0 0 218 32.487">
  <defs>
    <filter id="Budget" x="0" y="0" width="218" height="32.487" filterUnits="userSpaceOnUse">
      <feOffset dy="3" input="SourceAlpha"/>
      <feGaussianBlur stdDeviation="3" result="blur"/>
      <feFlood flood-color="#fff" flood-opacity="0.502"/>
      <feComposite operator="in" in2="blur"/>
      <feComposite in="SourceGraphic"/>
    </filter>
    <filter id="Budget-2" x="0" y="0" width="218" height="32.487" filterUnits="userSpaceOnUse">
      <feOffset dy="3" input="SourceAlpha"/>
      <feGaussianBlur stdDeviation="3" result="blur-2"/>
      <feFlood flood-opacity="0.251" result="color"/>
      <feComposite operator="out" in="SourceGraphic" in2="blur-2"/>
      <feComposite operator="in" in="color"/>
      <feComposite operator="in" in2="SourceGraphic"/>
    </filter>
  </defs>
  <g data-type="innerShadowGroup">
    <g transform="matrix(1, 0, 0, 1, 0, 0)" filter="url(#Budget)">
      <path id="Budget-3" data-name="Budget" d="M195.279,14.845l-6.054-4.238a3.035,3.035,0,0,1-.518-.458H11.293a3.036,3.036,0,0,1-.518.458L4.72,14.845A3,3,0,0,1,0,12.388V3.911A3,3,0,0,1,4.72,1.454l6.054,4.238a3.036,3.036,0,0,1,.518.458H188.707a3.035,3.035,0,0,1,.518-.458l6.054-4.238A3,3,0,0,1,200,3.911v8.476a3,3,0,0,1-3.01,3.005A2.964,2.964,0,0,1,195.279,14.845Z" transform="translate(9 5.09)" fill="#e4e4e4"/>
    </g>
    <g transform="matrix(1, 0, 0, 1, 0, 0)" filter="url(#Budget-2)">
      <path id="Budget-4" data-name="Budget" d="M195.279,14.845l-6.054-4.238a3.035,3.035,0,0,1-.518-.458H11.293a3.036,3.036,0,0,1-.518.458L4.72,14.845A3,3,0,0,1,0,12.388V3.911A3,3,0,0,1,4.72,1.454l6.054,4.238a3.036,3.036,0,0,1,.518.458H188.707a3.035,3.035,0,0,1,.518-.458l6.054-4.238A3,3,0,0,1,200,3.911v8.476a3,3,0,0,1-3.01,3.005A2.964,2.964,0,0,1,195.279,14.845Z" transform="translate(9 5.09)" fill="#fff"/>
    </g>
  </g>
</svg>
