<svg id="Group_799" data-name="Group 799" xmlns="http://www.w3.org/2000/svg" xmlns:xlink="http://www.w3.org/1999/xlink" width="48.492" height="51.396" viewBox="0 0 48.492 51.396">
  <defs>
    <clipPath id="clip-path">
      <rect id="Rectangle_1325" data-name="Rectangle 1325" width="48.492" height="51.396" fill="#274c5b"/>
    </clipPath>
  </defs>
  <g id="Group_798" data-name="Group 798" clip-path="url(#clip-path)">
    <path id="Path_249" data-name="Path 249" d="M48.482,8.938a4.027,4.027,0,0,0-4.2-4.051c-.27-.007-.54-.009-.813-.009l-.681,0-.336,0c-.009-.17-.016-.336-.024-.5a12.037,12.037,0,0,0-.169-1.807A3.172,3.172,0,0,0,38.8.02a3.252,3.252,0,0,0-2.889,3.193c-.012.449-.009.89-.006,1.357q0,.127,0,.255H32.438q0-.128,0-.254c.007-.471.014-.916-.013-1.371A3.229,3.229,0,0,0,29.22.008l-.137,0A3.237,3.237,0,0,0,26,3.336c-.008.424-.006.855,0,1.271v.182H22.5c0-.1,0-.2,0-.3,0-.479.01-.931-.01-1.387A3.2,3.2,0,0,0,19.383.01h-.1a3.219,3.219,0,0,0-3.187,2.9,7.424,7.424,0,0,0-.029.8,5.385,5.385,0,0,1-.043.854.705.705,0,0,1-.191.288c-.648.029-1.285.032-1.771.032-.3,0-.6,0-.908,0l-.561,0V4.633c0-.41,0-.782,0-1.154A3.247,3.247,0,0,0,9.426.01H9.349A3.308,3.308,0,0,0,6.094,3.453c-.011.4-.008.794-.006,1.213,0,.071,0,.143,0,.216l-.978,0c-.253,0-.5,0-.742,0C1.648,4.926.02,6.539.016,9.2c-.021,12.361-.021,25.093,0,37.842a4.085,4.085,0,0,0,4.442,4.352H19.344q12.365,0,24.732,0a5.124,5.124,0,0,0,1.166-.1c2.123-.492,3.246-2.079,3.247-4.589q0-14.737,0-29.474V9.441c0-.163,0-.331-.01-.5M38.273,3.369c0-.844.478-.959.838-.972h.051a.819.819,0,0,1,.857.906c.048,1.885.047,3.734,0,5.5a.8.8,0,0,1-.847.882l-.073,0c-.386-.02-.828-.15-.825-.986q0-.922,0-1.844Zm-9.926.1c0-.891.409-1.046.855-1.083l.074,0c.709,0,.82.863.837,1.128,0,.041,0,.083,0,.125V6.047c0,.28,0,.559,0,.839,0,.561.009,1.141-.013,1.707-.01.257-.1,1.1-.836,1.1-.027,0-.054,0-.082,0-.438-.036-.843-.193-.84-1.092.007-1.823.007-3.5,0-5.123M18.422,3.2a.759.759,0,0,1,.826-.81h.06a.786.786,0,0,1,.826.892c.012.636.009,1.286.007,1.915q0,.417,0,.835t0,.817c0,.634.006,1.29-.007,1.932-.015.768-.474.88-.819.9l-.069,0a.752.752,0,0,1-.821-.8c-.06-1.873-.061-3.784,0-5.682m-9.942.032a.789.789,0,0,1,.844-.84h.032c.367.009.856.117.862.947,0,.615,0,1.231,0,1.847v1.69c0,.626,0,1.253,0,1.879-.006.778-.459.9-.8.922-.033,0-.066,0-.1,0a.787.787,0,0,1-.841-.855c-.055-1.831-.055-3.713,0-5.593m37.66,43.43c0,1.788-.564,2.362-2.32,2.362H4.69c-1.769,0-2.337-.57-2.338-2.344q0-14.921,0-29.842c0-.2.011-.4.024-.614H46.142v8.339q0,11.049,0,22.1m0-34.156q-.005.6-.009,1.219H2.43c0-.414-.006-.828-.01-1.242-.014-1.293-.028-2.63.04-3.934A1.309,1.309,0,0,1,3.717,7.309a9.849,9.849,0,0,1,1.026-.045c.274,0,.55.006.832.013l.515.011q0,.1,0,.2c0,.426-.009.828.008,1.239A3.249,3.249,0,0,0,9.36,12.063h.056a3.228,3.228,0,0,0,3.174-3.45c0-.379,0-.757,0-1.155V7.28h3.457c0,.053,0,.107,0,.16,0,.4-.007.8.006,1.208a3.223,3.223,0,0,0,3.229,3.416h.093A3.254,3.254,0,0,0,22.5,8.576c0-.354,0-.709,0-1.09v-.18H26q0,.107,0,.213c0,.439-.007.893.006,1.341a3.211,3.211,0,0,0,3.1,3.2l.106,0h0a3.187,3.187,0,0,0,3.2-2.983,13.15,13.15,0,0,0,.022-1.467c0-.1,0-.206-.006-.312H35.9v.187c0,.416,0,.819,0,1.223a3.241,3.241,0,0,0,3.061,3.349c.057,0,.113,0,.169,0a3.263,3.263,0,0,0,3.252-3.123A13.919,13.919,0,0,0,42.4,7.55q0-.123,0-.248c.188,0,.373-.01.554-.015.3-.009.582-.018.862-.018a7.517,7.517,0,0,1,1.041.061,1.443,1.443,0,0,1,1.25,1.5c.051,1.21.04,2.407.029,3.675" transform="translate(0)" fill="#274c5b"/>
    <path id="Path_250" data-name="Path 250" d="M70.292,91.676a25.238,25.238,0,0,0-2.8-.389l-.582-.06a3.538,3.538,0,0,0,.551-.8,1.739,1.739,0,0,0,.02-1.618,1,1,0,0,0-.79-.4,1.423,1.423,0,0,0-1.069.608q-.918,1.14-1.839,2.277l-.58.716a1.388,1.388,0,0,0-.361,1,1.349,1.349,0,0,0,.555.921c.274.221.546.446.818.671.711.588,1.446,1.2,2.215,1.739a1.635,1.635,0,0,0,.908.244,1.185,1.185,0,0,0,.743-.216,1.011,1.011,0,0,0,.4-.805,1.414,1.414,0,0,0-.609-1.051c-.356-.282-.714-.578-1.06-.864l.183.01c.622.035,1.266.071,1.884.156a10.98,10.98,0,0,1,7.524,4.61,11.409,11.409,0,0,1,1.853,8.856,11.278,11.278,0,0,1-11.037,8.923,10.882,10.882,0,0,1-2.819-.371,11.167,11.167,0,0,1-7.839-7.2,11.365,11.365,0,0,1,1.819-10.68l.043-.056c.326-.428.933-1.226.048-1.94a1.176,1.176,0,0,0-.739-.293,1.649,1.649,0,0,0-1.194.8,13.234,13.234,0,0,0-2.939,7.757,13.567,13.567,0,0,0,13.609,14.308h0a14.439,14.439,0,0,0,2.239-.176,13.573,13.573,0,0,0,11.4-12.749,14.21,14.21,0,0,0-2.808-8.974,13.221,13.221,0,0,0-7.751-4.962" transform="translate(-42.972 -70.9)" fill="#274c5b"/>
    <path id="Path_251" data-name="Path 251" d="M118.716,134.061a1.412,1.412,0,0,0-.6-.905,3.253,3.253,0,0,1-.261-.253l-.289-.331-.3.322a3.1,3.1,0,0,1-.254.229,1.29,1.29,0,0,0-.594.863c-.064,2.119-.063,4.248,0,6.329a1.478,1.478,0,0,0,1.164,1.156c1.041.032,2.12.048,3.206.048,1.043,0,2.126-.015,3.22-.044a1.346,1.346,0,0,0,1.1-1.1c-.008-.517-.593-.96-.845-1.127a.918.918,0,0,0-.515-.133c-.088,0-.18.008-.273.015-.069.006-.138.012-.2.012h-4.529q0-.539,0-1.064c.007-1.387.014-2.7-.041-4.018" transform="translate(-93.323 -106.31)" fill="#274c5b"/>
  </g>
</svg>
