<svg id="Group_806" data-name="Group 806" xmlns="http://www.w3.org/2000/svg" xmlns:xlink="http://www.w3.org/1999/xlink" width="24.931" height="26.421" viewBox="0 0 24.931 26.421">
  <defs>
    <clipPath id="clip-path">
      <rect id="Rectangle_1328" data-name="Rectangle 1328" width="24.931" height="26.421" fill="#274c5b"/>
    </clipPath>
    <clipPath id="clip-path-2">
      <rect id="Rectangle_1327" data-name="Rectangle 1327" width="24.88" height="26.37" fill="#274c5b"/>
    </clipPath>
    <clipPath id="clip-path-3">
      <rect id="Rectangle_1326" data-name="Rectangle 1326" width="24.88" height="26.37" fill="#42A4A0"/>
    </clipPath>
  </defs>
  <g id="Group_805" data-name="Group 805" clip-path="url(#clip-path)">
    <g id="Group_804" data-name="Group 804" transform="translate(0.025 0.025)">
      <g id="Group_803" data-name="Group 803" clip-path="url(#clip-path-2)">
        <g id="Group_802" data-name="Group 802">
          <g id="Group_801" data-name="Group 801" clip-path="url(#clip-path-3)">
            <path id="Path_252" data-name="Path 252" d="M22.949,86.9a.831.831,0,0,0,.465.126.61.61,0,0,0,.382-.111A.521.521,0,0,0,24,86.5a.726.726,0,0,0-.313-.539c-.182-.144-.366-.3-.544-.443l.094.005c.32.017.65.036.967.08a5.631,5.631,0,0,1,3.861,2.365,5.855,5.855,0,0,1,.951,4.544,5.787,5.787,0,0,1-5.663,4.578,5.606,5.606,0,0,1-1.446-.19,5.732,5.732,0,0,1-4.023-3.7,5.833,5.833,0,0,1,.934-5.48l.021-.028c.168-.221.479-.629.024-1a.6.6,0,0,0-.379-.149.846.846,0,0,0-.613.413,6.784,6.784,0,0,0-1.507,3.98,6.96,6.96,0,0,0,6.982,7.341,7.411,7.411,0,0,0,1.148-.09,6.964,6.964,0,0,0,5.85-6.541,7.3,7.3,0,0,0-1.441-4.6A6.78,6.78,0,0,0,24.929,84.5a13.061,13.061,0,0,0-1.436-.2l-.3-.03a1.809,1.809,0,0,0,.283-.409.892.892,0,0,0,.01-.83.513.513,0,0,0-.4-.205.73.73,0,0,0-.549.312q-.471.585-.944,1.169l-.3.367a.712.712,0,0,0-.185.514.692.692,0,0,0,.285.473c.14.113.279.229.419.344.365.3.742.614,1.137.892m.4.418-.154.165a1.429,1.429,0,0,1-.13.118.663.663,0,0,0-.3.443c-.033,1.086-.033,2.179,0,3.247a.757.757,0,0,0,.6.593c.535.017,1.087.025,1.645.025.535,0,1.091-.008,1.652-.023a.69.69,0,0,0,.566-.562c0-.266-.3-.493-.434-.578a.468.468,0,0,0-.264-.068c-.045,0-.092,0-.139.007s-.071.006-.1.006H23.96c0-.184,0-.366,0-.546,0-.712.007-1.384-.021-2.062a.725.725,0,0,0-.3-.464,1.385,1.385,0,0,1-.134-.13Zm11.234-5.148v4.279q0,5.67,0,11.338C34.585,98.7,34.3,99,33.4,99H13.319c-.909,0-1.2-.293-1.2-1.2q0-7.655,0-15.311c0-.1.006-.205.012-.315Z" transform="translate(-10.912 -73.843)" fill="#42A4A0"/>
            <path id="Path_253" data-name="Path 253" d="M43.767,14.64c0,.321,0,.642,0,.965,0,.4-.236.46-.411.473l-.05,0a.4.4,0,0,1-.431-.439c-.028-.939-.028-1.906,0-2.87a.4.4,0,0,1,.433-.431h.017c.188.005.439.06.442.487,0,.315,0,.631,0,.947v.867Z" transform="translate(-38.522 -11.11)" fill="#42A4A0"/>
            <path id="Path_254" data-name="Path 254" d="M93.94,14.617c0,.325,0,.663,0,.992-.007.394-.243.451-.42.46H93.48a.387.387,0,0,1-.422-.41c-.03-.961-.03-1.942,0-2.916a.39.39,0,0,1,.424-.416h.03a.4.4,0,0,1,.424.457c.006.326.005.66,0,.982,0,.143,0,.286,0,.429s0,.279,0,.419" transform="translate(-83.605 -11.101)" fill="#42A4A0"/>
            <path id="Path_255" data-name="Path 255" d="M144.26,14.6c0,.289.005.585-.006.876-.005.132-.051.563-.429.563l-.043,0c-.225-.018-.433-.1-.431-.56,0-.936,0-1.8,0-2.629,0-.456.209-.537.439-.555l.038,0c.364,0,.421.443.43.579,0,.021,0,.043,0,.064v1.236c0,.143,0,.287,0,.43" transform="translate(-128.808 -11.065)" fill="#42A4A0"/>
            <path id="Path_256" data-name="Path 256" d="M194.358,12.813c.024.968.023,1.916,0,2.82a.413.413,0,0,1-.435.453h-.038c-.2-.01-.425-.077-.423-.506,0-.316,0-.631,0-.946V12.848c0-.433.245-.492.43-.5h.026a.421.421,0,0,1,.44.464" transform="translate(-173.825 -11.119)" fill="#42A4A0"/>
            <path id="Path_257" data-name="Path 257" d="M34.825,37.725c.026.621.021,1.235.015,1.885q0,.311,0,.626H12.415q0-.32-.005-.638c-.007-.663-.014-1.35.02-2.017a.672.672,0,0,1,.646-.638,4.948,4.948,0,0,1,.525-.023c.141,0,.283,0,.428.007l.264.005c0,.035,0,.069,0,.1,0,.219-.005.425,0,.635a1.667,1.667,0,0,0,1.674,1.712H16a1.657,1.657,0,0,0,1.628-1.77c0-.194,0-.388,0-.593v-.091H19.4v.082c0,.2,0,.413,0,.62a1.653,1.653,0,0,0,1.657,1.752h.048a1.67,1.67,0,0,0,1.6-1.789c0-.181,0-.363,0-.559V36.94h1.793c0,.037,0,.073,0,.11,0,.225,0,.458,0,.688a1.648,1.648,0,0,0,1.59,1.642h.055a1.625,1.625,0,0,0,1.12-.433,1.692,1.692,0,0,0,.524-1.1,7.1,7.1,0,0,0,.011-.752c0-.053,0-.106,0-.16H29.59c0,.032,0,.063,0,.1,0,.213,0,.42,0,.627a1.663,1.663,0,0,0,1.57,1.719l.086,0a1.675,1.675,0,0,0,1.669-1.6,6.979,6.979,0,0,0,.009-.713c0-.043,0-.085,0-.127l.284-.008c.153-.005.3-.009.443-.009a3.863,3.863,0,0,1,.534.032.739.739,0,0,1,.641.771" transform="translate(-11.169 -33.192)" fill="#42A4A0"/>
            <path id="Path_258" data-name="Path 258" d="M25.13,5.093v4q0,7.56,0,15.122a2.14,2.14,0,0,1-1.666,2.355,2.672,2.672,0,0,1-.6.049q-6.345,0-12.69,0H2.537A2.1,2.1,0,0,1,.258,24.386C.247,17.845.247,11.312.258,4.97A2.066,2.066,0,0,1,2.492,2.755c.126,0,.251,0,.381,0l.5,0V2.643c0-.215,0-.419,0-.623A1.7,1.7,0,0,1,5.046.254h.04A1.668,1.668,0,0,1,6.71,2.034c0,.191,0,.382,0,.593v.125H7l.466,0c.249,0,.576,0,.909-.016a.363.363,0,0,0,.1-.148,2.772,2.772,0,0,0,.022-.438,4,4,0,0,1,.014-.41A1.651,1.651,0,0,1,10.142.254h.053a1.641,1.641,0,0,1,1.594,1.589c.009.234.007.465,0,.711,0,.05,0,.1,0,.151h1.795V2.612c0-.213,0-.434,0-.651A1.659,1.659,0,0,1,15.172.255l.07,0A1.656,1.656,0,0,1,16.887,1.89c.014.234.011.462.007.7,0,.044,0,.087,0,.131h1.779c0-.044,0-.087,0-.131,0-.24,0-.465,0-.7A1.669,1.669,0,0,1,20.156.259a1.762,1.762,0,0,1,.18-.01,1.636,1.636,0,0,1,1.6,1.321,6.257,6.257,0,0,1,.086.927c0,.084.007.17.012.257h.173l.35,0c.139,0,.278,0,.417.005a2.066,2.066,0,0,1,2.153,2.078c.006.088.005.175.005.258m-1.205,7.761V8.575H1.469c-.006.11-.012.214-.012.315q0,7.656,0,15.311c0,.911.292,1.2,1.2,1.2H22.733c.9,0,1.19-.295,1.19-1.212q0-5.67,0-11.338m0-6.186c.006-.65.011-1.264-.015-1.885a.739.739,0,0,0-.641-.771,3.863,3.863,0,0,0-.534-.032c-.144,0-.29,0-.443.009L22,4c0,.042,0,.084,0,.127A6.978,6.978,0,0,1,22,4.837a1.675,1.675,0,0,1-1.669,1.6l-.086,0a1.663,1.663,0,0,1-1.57-1.719c0-.207,0-.414,0-.627,0-.033,0-.064,0-.1H16.886c0,.054,0,.107,0,.16a7.1,7.1,0,0,1-.011.752,1.692,1.692,0,0,1-.524,1.1,1.625,1.625,0,0,1-1.12.433H15.18A1.648,1.648,0,0,1,13.59,4.8c-.006-.23-.005-.463,0-.688,0-.037,0-.073,0-.11H11.8V4.09c0,.2,0,.378,0,.559a1.67,1.67,0,0,1-1.6,1.789h-.048A1.653,1.653,0,0,1,8.486,4.686c-.007-.207-.005-.418,0-.62V3.984H6.71v.091c0,.2,0,.4,0,.593a1.657,1.657,0,0,1-1.628,1.77H5.052A1.667,1.667,0,0,1,3.378,4.727c-.009-.21-.007-.417,0-.635,0-.035,0-.069,0-.1l-.264-.005c-.145,0-.287-.007-.428-.007A4.948,4.948,0,0,0,2.157,4a.672.672,0,0,0-.646.638c-.035.668-.027,1.355-.02,2.017q0,.319.005.638H23.917q0-.316,0-.626m-3.139-1.9c.024-.9.025-1.853,0-2.82a.421.421,0,0,0-.44-.464h-.026c-.185.007-.43.066-.43.5V3.764c0,.315,0,.63,0,.946,0,.429.226.5.423.506h.038a.413.413,0,0,0,.435-.453M15.7,4.658c.011-.291.009-.587.006-.876,0-.143,0-.287,0-.43V2.116c0-.021,0-.043,0-.064-.009-.136-.066-.579-.43-.579l-.038,0c-.23.018-.441.1-.439.555,0,.833,0,1.693,0,2.629,0,.461.206.542.431.56l.043,0c.378,0,.424-.431.429-.563m-5.116.1c.007-.329.005-.667,0-.992,0-.139,0-.279,0-.419s0-.286,0-.429c0-.322,0-.656,0-.982a.4.4,0,0,0-.424-.457h-.03a.39.39,0,0,0-.424.416c-.029.974-.029,1.954,0,2.916a.387.387,0,0,0,.422.41h.036c.177-.009.413-.066.42-.46M5.492,4.743c0-.322,0-.643,0-.965V2.912c0-.316,0-.632,0-.947,0-.427-.254-.482-.442-.487H5.034a.4.4,0,0,0-.433.431c-.028.965-.028,1.931,0,2.87a.4.4,0,0,0,.431.439l.05,0c.175-.012.408-.074.411-.473" transform="translate(-0.249 -0.249)" fill="#274c5b"/>
            <path id="Path_259" data-name="Path 259" d="M66.389,92.88a7.3,7.3,0,0,1,1.441,4.6,6.964,6.964,0,0,1-5.85,6.541,7.413,7.413,0,0,1-1.148.09,6.96,6.96,0,0,1-6.982-7.341,6.784,6.784,0,0,1,1.507-3.98.846.846,0,0,1,.613-.413.6.6,0,0,1,.379.149c.454.367.143.775-.024,1l-.021.028a5.833,5.833,0,0,0-.934,5.48,5.732,5.732,0,0,0,4.023,3.7,5.6,5.6,0,0,0,1.446.19A5.787,5.787,0,0,0,66.5,98.344,5.855,5.855,0,0,0,65.55,93.8a5.631,5.631,0,0,0-3.861-2.365c-.316-.045-.646-.063-.967-.08l-.094-.005c.178.147.362.3.544.443a.726.726,0,0,1,.313.539.521.521,0,0,1-.205.414.611.611,0,0,1-.382.111.831.831,0,0,1-.465-.126c-.4-.278-.772-.59-1.137-.892-.139-.115-.278-.231-.419-.344a.692.692,0,0,1-.285-.473.712.712,0,0,1,.185-.514l.3-.367q.473-.584.944-1.169a.73.73,0,0,1,.549-.312.512.512,0,0,1,.4.205.892.892,0,0,1-.01.83,1.809,1.809,0,0,1-.283.409l.3.03a13.061,13.061,0,0,1,1.436.2,6.78,6.78,0,0,1,3.977,2.546" transform="translate(-48.395 -79.674)" fill="#274c5b"/>
            <path id="Path_260" data-name="Path 260" d="M121.11,136.824a.69.69,0,0,1-.566.562c-.561.015-1.117.023-1.652.023-.558,0-1.111-.008-1.645-.025a.757.757,0,0,1-.6-.593c-.035-1.068-.035-2.161,0-3.247a.663.663,0,0,1,.3-.443,1.428,1.428,0,0,0,.13-.118l.154-.165.148.17a1.382,1.382,0,0,0,.134.13.725.725,0,0,1,.3.464c.028.678.025,1.35.021,2.062,0,.18,0,.362,0,.546h2.323c.034,0,.069,0,.1-.006s.095-.007.139-.007a.468.468,0,0,1,.264.068c.129.085.43.312.434.578" transform="translate(-104.797 -119.345)" fill="#274c5b"/>
          </g>
        </g>
      </g>
    </g>
  </g>
</svg>
