<svg xmlns="http://www.w3.org/2000/svg" xmlns:xlink="http://www.w3.org/1999/xlink" width="46.08" height="46.413" viewBox="0 0 46.08 46.413">
  <defs>
    <clipPath id="clip-path">
      <rect id="Rectangle_1321" data-name="Rectangle 1321" width="46.08" height="46.413" fill="#42A4A0"/>
    </clipPath>
    <clipPath id="clip-path-2">
      <rect id="Rectangle_1323" data-name="Rectangle 1323" width="46.08" height="46.408" fill="#274c5b"/>
    </clipPath>
  </defs>
  <g id="Group_807" data-name="Group 807" transform="translate(21052 -10914.531)">
    <g id="Group_791" data-name="Group 791" transform="translate(-21052 10914.531)">
      <g id="Group_789" data-name="Group 789" clip-path="url(#clip-path)">
        <path id="Path_170" data-name="Path 170" d="M34.038,43.126l.6-.044c4.505-.358,7.939-2.354,9.909-6.538a16.673,16.673,0,0,0,1.527-6.762c.037-1.467-.278-1.765-1.764-1.766-5.681,0-11.362-.016-17.042.017-.783,0-1.172-.136-1.4-.987a3.018,3.018,0,0,0-2.934-2.586.724.724,0,0,1-.476-.414,3.736,3.736,0,0,0-5.114-2.275c-2.041-1.95-4.484-2.34-5.964-.953-1.4,1.312-1.116,3.152.82,5.392l-.545,1.806h-.6c-3.193,0-6.387-.007-9.58,0-1.125,0-1.557.391-1.469,1.492a26.236,26.236,0,0,0,.581,4.359c1.051,4.145,3.365,7.272,7.61,8.593a36.187,36.187,0,0,0,3.871.772,3.925,3.925,0,0,0,4.289,3.176q6.633,0,13.265,0c2.441,0,3.686-.912,4.412-3.286m5.421-25.5a10.143,10.143,0,0,0-1.9-5.937c-.3-.436-.637-.775-1.18-.257-1.06,1.012-2.118,2.029-3.224,2.99a1.376,1.376,0,0,1-1.028.273,11.394,11.394,0,0,0-6.3.707c-.522.194-.8.508-.649,1.032a18.422,18.422,0,0,0,1.282,3.973,7.491,7.491,0,0,0,6.76,3.92c3.47.006,6.239-3.172,6.242-6.7M8.635,6.472A4.66,4.66,0,0,0,13.3.656c-.158-.542-.379-.786-.981-.59Q8.606,1.272,4.882,2.43c-.669.209-.753.57-.5,1.184A4.683,4.683,0,0,0,8.635,6.472m3.257,8.993c.229.985.139,2.192,1.373,2.381a2.416,2.416,0,0,0,1.865-.587c1.032-1.1-.045-2.043-.577-3,.886-.484,1.632-1.026,1.64-2.093a3.161,3.161,0,0,0-3.377-3.207,8.472,8.472,0,0,0-3.269,1.247,2.913,2.913,0,0,0-.939,3.832c.6,1.359,1.187,1.629,3.048,1.4a1.227,1.227,0,0,1,.236.026M32.008,7.808C34.045,8.02,34.7,7.69,35.245,6.2a2.885,2.885,0,0,0-1.076-3.652,8.886,8.886,0,0,0-3.3-1.172,3.008,3.008,0,0,0-3.171,2.391c-.373,1.377-.036,2.048,1.479,2.958.045.027.063.1.09.146-.445.868-1.418,1.706-.56,2.72a2.435,2.435,0,0,0,1.805.776c1.482-.145,1.289-1.529,1.5-2.554m5.9-1.447a4.087,4.087,0,0,0,8.167.331,4.137,4.137,0,0,0-3.971-4.321,4.081,4.081,0,0,0-4.2,3.991M4.153,25.982A4.076,4.076,0,1,0,.043,21.9a4.1,4.1,0,0,0,4.11,4.082M5.221,12.8A2.862,2.862,0,0,0,2.749,10.1a1.255,1.255,0,0,0-.956.565,2.551,2.551,0,0,0,.947,3.3,2.2,2.2,0,0,0,1.668.349c.418-.2.553-.988.813-1.518M23.063,8.389c0-1.076-.239-1.306-1.295-1.249a2.724,2.724,0,0,0-2.5,3.032c.08.765.491.978,1.161.955a2.69,2.69,0,0,0,2.635-2.738m21.41,14.554a2.712,2.712,0,0,0-1.333-2.366.886.886,0,0,0-1.291.205,2.766,2.766,0,0,0-.55,2.584c.23.867,1.284,1.87,1.886,1.821s1.287-1.258,1.287-2.245m-23.066-5.8A1.666,1.666,0,0,0,19.8,15.482a1.71,1.71,0,0,0-1.66,1.63,1.619,1.619,0,0,0,1.678,1.667,1.57,1.57,0,0,0,1.59-1.638m21.646-.421a1.75,1.75,0,0,0,1.705-1.6,1.672,1.672,0,0,0-1.573-1.7,1.618,1.618,0,0,0-1.72,1.524,1.675,1.675,0,0,0,1.588,1.776m1.611,26.3c-.591-.424-1.029-.755-1.5-1.035a2.08,2.08,0,0,0-.425.506,9.327,9.327,0,0,0,1.194,1.124c.043.033.361-.29.73-.6m-2.57.715c-.346-.411-.575-.924-.826-.935-.668-.03-.529.582-.536,1.015s-.06.986.559.888c.27-.043.468-.543.8-.968m2.378-2.355.988-.838c-.333-.186-.667-.516-1-.516s-.643.341-.964.532l.976.821" transform="translate(0 0)" fill="#42A4A0"/>
        <path id="Path_171" data-name="Path 171" d="M34.038,131.331c-.726,2.374-1.971,3.286-4.412,3.286H16.361a3.925,3.925,0,0,1-4.289-3.176,36.156,36.156,0,0,1-3.871-.772c-4.245-1.321-6.559-4.448-7.61-8.593a26.236,26.236,0,0,1-.581-4.359c-.087-1.1.344-1.488,1.469-1.492,3.193-.012,6.387,0,9.58,0h.6l.545-1.806c-1.937-2.24-2.221-4.08-.82-5.392,1.481-1.387,3.924-1,5.964.953a3.736,3.736,0,0,1,5.114,2.275.724.724,0,0,0,.476.414,3.018,3.018,0,0,1,2.934,2.586c.224.85.612.991,1.4.987,5.681-.033,11.361-.019,17.042-.017,1.486,0,1.8.3,1.764,1.766a16.672,16.672,0,0,1-1.527,6.762c-1.97,4.183-5.4,6.18-9.909,6.538l-.6.044M44.9,117.364H1.142c-.017.249-.043.457-.044.665-.011,1.625-.009,1.625,1.584,1.625q15.944,0,31.887.016c.471,0,1.313-.352,1.321.5.008.815-.816.557-1.312.558q-15.944.021-31.887.011H1.547c-.042.171-.079.234-.068.287,1.133,5.638,4.622,9,10.161,9.123,7.584.17,15.175.106,22.762.014a9.619,9.619,0,0,0,8.025-3.984,12.032,12.032,0,0,0,2.177-5.327,1.267,1.267,0,0,0-.27-.093c-1.321-.009-2.642,0-3.962-.027-.487-.009-1.225.184-1.227-.573,0-.727.721-.482,1.165-.5.89-.031,1.782-.009,2.672-.009,2.137,0,2.176-.045,1.917-2.289m-19.918-1.235c-.232-1.026-.513-1.993-1.614-2.3a2.826,2.826,0,0,1-2.194-1.62,3.877,3.877,0,0,0-1.647-1.343,1.86,1.86,0,0,0-1.577.258c-.674.541-.975.344-1.375-.249a3.22,3.22,0,0,0-3.4-1.519,1.658,1.658,0,0,0-1.448,2.273,5.161,5.161,0,0,0,1.3,1.933c.587.531.893.861.216,1.525-.236.231-.276.662-.426,1.057h5.829c-1.327-.955-2.609-1.844-3.842-2.8-.206-.159-.2-.594-.29-.9.323.024.718-.063.957.091,1.106.713,2.2,1.449,3.24,2.26a7.8,7.8,0,0,0,6.265,1.334m7.8,15.215H13.315A2.441,2.441,0,0,0,15.69,133.5q7.368.046,14.737,0a2.5,2.5,0,0,0,2.359-2.152" transform="translate(0 -88.204)" fill="#42A4A0"/>
        <path id="Path_172" data-name="Path 172" d="M150.344,66.9c0,3.53-2.772,6.708-6.242,6.7a7.491,7.491,0,0,1-6.76-3.92,18.413,18.413,0,0,1-1.282-3.973c-.151-.523.127-.837.649-1.032a11.4,11.4,0,0,1,6.3-.707,1.375,1.375,0,0,0,1.028-.273c1.106-.961,2.164-1.977,3.224-2.99.543-.519.877-.179,1.18.257a10.144,10.144,0,0,1,1.9,5.937m-6.364,5.142a27.475,27.475,0,0,0,3.048-9.307c-.906.729-1.7,1.35-2.468,1.991a6.757,6.757,0,0,0-.782.779,4.758,4.758,0,0,0,.2,6.537m-6.715-5.566c.666,3.133,2.646,5.244,5.161,5.692-.309-1.057-.623-2.155-.96-3.247a.726.726,0,0,0-.321-.382c-1.262-.684-2.532-1.35-3.88-2.063m9.562,2.168c.739-.354,1.378-.635,1.987-.968a.811.811,0,0,0,.4-.527,7.91,7.91,0,0,0-.978-4.329l-1.412,5.824m-1.576,3.47c1.714-.374,3.356-1.852,3.5-3.093-2.617,1.013-2.617,1.013-3.5,3.093m-2.636-7.112h-1.672l.5,2.451,1.173-2.451m-4.839.427,2.423,1.4-.419-1.856-2,.46" transform="translate(-110.885 -49.278)" fill="#42A4A0"/>
        <path id="Path_173" data-name="Path 173" d="M27.4,6.473a4.683,4.683,0,0,1-4.248-2.859c-.257-.613-.173-.975.5-1.183Q27.365,1.268,31.075.067c.6-.2.823.048.981.59A4.66,4.66,0,0,1,27.4,6.473m-2.9-3.34-.14.329a3.541,3.541,0,0,0,6.657-2.146c-.653-.043-.876.312-.961.916A2.4,2.4,0,0,1,28.217,4.3a2.661,2.661,0,0,1-2.623-.678,4.044,4.044,0,0,0-1.1-.49m4.443-1.225-2.648.858c1.317.9,2.332.557,2.648-.858" transform="translate(-18.76 0)" fill="#42A4A0"/>
        <path id="Path_174" data-name="Path 174" d="M48.393,54.9a1.247,1.247,0,0,0-.236-.026c-1.86.232-2.451-.038-3.047-1.4a2.913,2.913,0,0,1,.939-3.832A8.475,8.475,0,0,1,49.317,48.4a3.161,3.161,0,0,1,3.377,3.207c-.009,1.067-.755,1.61-1.64,2.093.532.952,1.608,1.892.577,3a2.416,2.416,0,0,1-1.865.587c-1.234-.19-1.144-1.4-1.373-2.381m-2.638-2.936c.112,1.626,1,2.246,2.437,1.691,1.019-.393,1.1-.347,1.283.755a7.383,7.383,0,0,0,.143,1.09,1.678,1.678,0,0,0,.525.773c.094.073.574-.111.607-.244a1.563,1.563,0,0,0-.1-.9,3.352,3.352,0,0,0-.543-.735c-.805-1.016-.745-1.1.385-1.711a2.031,2.031,0,0,0,1.047-1.194,1.962,1.962,0,0,0-2.129-2.02,9.589,9.589,0,0,0-2.886,1.227c-.376.219-.52.836-.77,1.272" transform="translate(-36.501 -39.437)" fill="#42A4A0"/>
        <path id="Path_175" data-name="Path 175" d="M153.566,13.76c-.213,1.025-.02,2.409-1.5,2.554a2.435,2.435,0,0,1-1.805-.776c-.858-1.014.115-1.852.56-2.72-.027-.045-.045-.118-.09-.146-1.515-.91-1.852-1.581-1.479-2.958a3.008,3.008,0,0,1,3.171-2.391,8.888,8.888,0,0,1,3.3,1.172,2.885,2.885,0,0,1,1.076,3.652c-.548,1.495-1.2,1.824-3.236,1.613m-.628-5.405c-1.624.02-2.436.742-2.654,1.817-.226,1.112.58,1.339,1.329,1.634.057.022.122.023.178.045.536.215.717.539.35,1.061a8.536,8.536,0,0,0-.937,1.462c-.086.2.2.561.312.849.27-.155.658-.247.781-.479a3.1,3.1,0,0,0,.148-1.081c.152-1.446.139-1.393,1.517-1.067a1.855,1.855,0,0,0,1.473-.245,1.885,1.885,0,0,0-.136-2.785,13.657,13.657,0,0,0-2.36-1.21" transform="translate(-121.557 -5.951)" fill="#42A4A0"/>
        <path id="Path_176" data-name="Path 176" d="M205.155,16.814a4.081,4.081,0,0,1,4.2-3.991,4.109,4.109,0,0,1-.235,8.215,4.082,4.082,0,0,1-3.961-4.225m7.067.1a2.991,2.991,0,0,0-2.962-2.991,3.038,3.038,0,0,0-3.038,3.029,3.07,3.07,0,0,0,2.984,3.006,3.013,3.013,0,0,0,3.016-3.044" transform="translate(-167.244 -10.452)" fill="#42A4A0"/>
        <path id="Path_177" data-name="Path 177" d="M4.346,104.643a4.076,4.076,0,1,1,4.124-4.068,4.11,4.11,0,0,1-4.124,4.068m-.009-1.092A2.982,2.982,0,1,0,1.325,100.6a3,3,0,0,0,3.012,2.952" transform="translate(-0.192 -78.661)" fill="#42A4A0"/>
        <path id="Path_178" data-name="Path 178" d="M11.97,57.372c-.259.53-.395,1.315-.813,1.518a2.2,2.2,0,0,1-1.668-.349,2.551,2.551,0,0,1-.947-3.3,1.255,1.255,0,0,1,.956-.565,2.862,2.862,0,0,1,2.472,2.694M9.527,55.785c-.29,1.108.076,1.75,1.066,1.98.265-.956-.014-1.5-1.066-1.98" transform="translate(-6.749 -44.574)" fill="#42A4A0"/>
        <path id="Path_179" data-name="Path 179" d="M108,39.853a2.69,2.69,0,0,1-2.635,2.738c-.669.023-1.08-.19-1.16-.955a2.724,2.724,0,0,1,2.5-3.032c1.056-.057,1.295.174,1.295,1.249m-1.127-.093c-1.14.093-1.628.676-1.459,1.673,1.056-.186,1.385-.547,1.459-1.673" transform="translate(-84.935 -31.464)" fill="#42A4A0"/>
        <path id="Path_180" data-name="Path 180" d="M226.184,112.889c0,.987-.694,2.2-1.288,2.244s-1.657-.954-1.886-1.821a2.766,2.766,0,0,1,.55-2.584.886.886,0,0,1,1.291-.205,2.712,2.712,0,0,1,1.333,2.366m-1.836-1.348c-.594,1.133-.47,1.693.442,2.259a1.512,1.512,0,0,0-.442-2.259" transform="translate(-181.711 -89.946)" fill="#42A4A0"/>
        <path id="Path_181" data-name="Path 181" d="M101.43,85.445a1.57,1.57,0,0,1-1.59,1.638,1.619,1.619,0,0,1-1.678-1.667,1.71,1.71,0,0,1,1.66-1.63,1.666,1.666,0,0,1,1.607,1.658m-1.566.749c.213-.35.454-.569.428-.752-.028-.2-.3-.362-.47-.541-.187.2-.465.378-.526.612-.034.133.286.358.568.681" transform="translate(-80.023 -68.304)" fill="#42A4A0"/>
        <path id="Path_182" data-name="Path 182" d="M225.969,75.913a1.674,1.674,0,0,1-1.588-1.776,1.618,1.618,0,0,1,1.72-1.524,1.671,1.671,0,0,1,1.573,1.7,1.75,1.75,0,0,1-1.705,1.6m.007-2.416c-.226.347-.476.561-.455.743.023.2.3.374.459.559.195-.2.479-.366.549-.6.039-.131-.277-.368-.553-.7" transform="translate(-182.917 -59.193)" fill="#42A4A0"/>
        <path id="Path_183" data-name="Path 183" d="M233.212,228.234c-.368.305-.687.628-.73.6a9.328,9.328,0,0,1-1.194-1.124,2.083,2.083,0,0,1,.425-.507c.469.28.907.612,1.5,1.035" transform="translate(-188.549 -185.215)" fill="#42A4A0"/>
        <path id="Path_184" data-name="Path 184" d="M221.75,232.541c-.335.425-.533.925-.8.968-.619.1-.567-.469-.559-.888s-.132-1.045.536-1.015c.251.011.48.524.826.935" transform="translate(-179.657 -188.807)" fill="#42A4A0"/>
        <path id="Path_185" data-name="Path 185" d="M236.353,217.958l-.976-.821c.322-.191.643-.532.964-.532s.667.33,1,.516l-.988.838" transform="translate(-191.883 -176.579)" fill="#42A4A0"/>
        <path id="Path_186" data-name="Path 186" d="M49.738,157.8c.259,2.244.22,2.289-1.917,2.289-.891,0-1.782-.022-2.672.009-.444.016-1.167-.229-1.165.5,0,.757.74.563,1.227.573,1.32.025,2.641.018,3.962.027a1.268,1.268,0,0,1,.27.093,12.033,12.033,0,0,1-2.177,5.327A9.619,9.619,0,0,1,39.24,170.6c-7.587.092-15.178.156-22.762-.014-5.539-.124-9.028-3.485-10.161-9.123-.011-.053.026-.115.068-.287H7.529q15.944,0,31.887-.011c.5,0,1.32.257,1.312-.558-.008-.853-.85-.5-1.321-.5q-15.944-.032-31.887-.016c-1.593,0-1.594,0-1.584-1.625,0-.208.027-.415.044-.665Zm-7.4,3.546c.253-.331.518-.527.509-.71a.475.475,0,0,0-.949-.035c-.026.178.22.4.44.745" transform="translate(-4.838 -128.642)" fill="#42A4A0"/>
        <path id="Path_187" data-name="Path 187" d="M76.182,120.989a7.8,7.8,0,0,1-6.266-1.334c-1.035-.812-2.133-1.547-3.239-2.26-.239-.154-.634-.067-.957-.091.091.308.084.743.29.9,1.233.952,2.514,1.841,3.842,2.8H64.024c.151-.4.191-.826.426-1.057.677-.664.371-.993-.216-1.525a5.157,5.157,0,0,1-1.3-1.933,1.658,1.658,0,0,1,1.448-2.273,3.22,3.22,0,0,1,3.4,1.518c.4.594.7.791,1.375.249a1.859,1.859,0,0,1,1.577-.258,3.874,3.874,0,0,1,1.647,1.343,2.826,2.826,0,0,0,2.195,1.619c1.1.31,1.382,1.276,1.614,2.3" transform="translate(-51.2 -93.065)" fill="#42A4A0"/>
        <path id="Path_188" data-name="Path 188" d="M91.527,233.456a2.5,2.5,0,0,1-2.359,2.152q-7.368.053-14.737,0a2.441,2.441,0,0,1-2.375-2.155Z" transform="translate(-58.741 -190.317)" fill="#42A4A0"/>
        <path id="Path_189" data-name="Path 189" d="M172.9,82.152a4.758,4.758,0,0,1-.2-6.537,6.759,6.759,0,0,1,.783-.779c.772-.641,1.561-1.262,2.467-1.991a27.47,27.47,0,0,1-3.048,9.307" transform="translate(-139.805 -59.384)" fill="#42A4A0"/>
        <path id="Path_190" data-name="Path 190" d="M142.762,93.091c1.347.713,2.619,1.379,3.88,2.063a.726.726,0,0,1,.321.382c.337,1.091.65,2.19.96,3.247-2.515-.448-4.495-2.559-5.161-5.692" transform="translate(-116.382 -75.889)" fill="#42A4A0"/>
        <path id="Path_191" data-name="Path 191" d="M194.508,79.128,195.92,73.3a7.913,7.913,0,0,1,.978,4.329.81.81,0,0,1-.4.527c-.61.333-1.248.614-1.987.968" transform="translate(-158.566 -59.758)" fill="#42A4A0"/>
        <path id="Path_192" data-name="Path 192" d="M185.977,109.952c.879-2.08.879-2.08,3.5-3.093-.14,1.241-1.782,2.719-3.5,3.093" transform="translate(-151.611 -87.113)" fill="#42A4A0"/>
        <path id="Path_193" data-name="Path 193" d="M164.339,85.113l-1.173,2.451-.5-2.451Z" transform="translate(-132.608 -69.385)" fill="#42A4A0"/>
        <path id="Path_194" data-name="Path 194" d="M145.527,85.4l2-.46.419,1.856-2.423-1.4" transform="translate(-118.636 -69.241)" fill="#42A4A0"/>
        <path id="Path_195" data-name="Path 195" d="M30.421,8.921a4.044,4.044,0,0,1,1.1.49,2.661,2.661,0,0,0,2.623.678,2.4,2.4,0,0,0,1.834-2.069c.086-.6.308-.959.961-.916a3.541,3.541,0,0,1-6.657,2.146l.14-.329" transform="translate(-24.685 -5.789)" fill="#42A4A0"/>
        <path id="Path_196" data-name="Path 196" d="M43.4,10.32c-.316,1.415-1.331,1.756-2.648.858L43.4,10.32" transform="translate(-33.222 -8.413)" fill="#42A4A0"/>
        <path id="Path_197" data-name="Path 197" d="M50.079,56.673c.25-.436.394-1.053.77-1.272a9.589,9.589,0,0,1,2.886-1.227,1.962,1.962,0,0,1,2.129,2.02,2.031,2.031,0,0,1-1.047,1.194c-1.131.614-1.191.7-.385,1.711a3.352,3.352,0,0,1,.543.735,1.563,1.563,0,0,1,.1.9c-.032.133-.513.317-.607.244a1.678,1.678,0,0,1-.525-.773,7.383,7.383,0,0,1-.143-1.09c-.178-1.1-.264-1.148-1.283-.755-1.439.556-2.325-.065-2.437-1.691" transform="translate(-40.825 -44.143)" fill="#42A4A0"/>
        <path id="Path_198" data-name="Path 198" d="M157.945,13.008a13.657,13.657,0,0,1,2.36,1.21A1.885,1.885,0,0,1,160.441,17a1.855,1.855,0,0,1-1.473.245c-1.378-.326-1.365-.379-1.517,1.067A3.1,3.1,0,0,1,157.3,19.4c-.123.232-.511.325-.781.479-.115-.288-.4-.647-.312-.849a8.536,8.536,0,0,1,.937-1.462c.366-.522.185-.847-.35-1.061-.056-.023-.121-.023-.178-.045-.749-.294-1.554-.522-1.329-1.634.218-1.075,1.031-1.8,2.654-1.817" transform="translate(-126.564 -10.604)" fill="#42A4A0"/>
        <path id="Path_199" data-name="Path 199" d="M216.932,21.788a3.012,3.012,0,0,1-3.016,3.044,3.07,3.07,0,0,1-2.984-3.006A3.038,3.038,0,0,1,213.97,18.8a2.992,2.992,0,0,1,2.962,2.991m-3,1.639a1.667,1.667,0,0,0,1.673-1.594,1.725,1.725,0,0,0-1.706-1.682,1.636,1.636,0,0,0-1.592,1.669,1.575,1.575,0,0,0,1.624,1.607" transform="translate(-171.954 -15.323)" fill="#42A4A0"/>
        <path id="Path_200" data-name="Path 200" d="M9.139,108.391a2.982,2.982,0,1,1,3.031-3.014,3.015,3.015,0,0,1-3.031,3.014m-1.6-3.038a1.62,1.62,0,0,0,1.544,1.7,1.655,1.655,0,1,0-1.544-1.7" transform="translate(-4.994 -83.501)" fill="#42A4A0"/>
        <path id="Path_201" data-name="Path 201" d="M14.609,60.674c1.052.484,1.331,1.024,1.066,1.98-.99-.23-1.355-.873-1.066-1.98" transform="translate(-11.831 -49.462)" fill="#42A4A0"/>
        <path id="Path_202" data-name="Path 202" d="M112.135,44.9c-.074,1.126-.4,1.487-1.459,1.673-.169-1,.319-1.58,1.459-1.673" transform="translate(-90.199 -36.599)" fill="#42A4A0"/>
        <path id="Path_203" data-name="Path 203" d="M229.136,116.865a1.512,1.512,0,0,1,.442,2.259c-.912-.566-1.036-1.127-.442-2.259" transform="translate(-186.498 -95.27)" fill="#42A4A0"/>
        <path id="Path_204" data-name="Path 204" d="M104.855,91.111c-.282-.322-.6-.548-.568-.681.06-.234.339-.411.526-.612.167.179.443.343.47.541.026.182-.216.4-.428.752" transform="translate(-85.014 -73.221)" fill="#42A4A0"/>
        <path id="Path_205" data-name="Path 205" d="M231.011,77.4c.276.334.592.571.553.7-.07.234-.354.4-.549.6-.164-.185-.435-.358-.459-.559-.021-.182.228-.4.455-.743" transform="translate(-187.952 -63.102)" fill="#42A4A0"/>
        <path id="Path_206" data-name="Path 206" d="M201,171.708c-.22-.349-.466-.567-.44-.745a.475.475,0,0,1,.949.035c.009.183-.256.378-.509.71" transform="translate(-163.5 -139.002)" fill="#42A4A0"/>
        <path id="Path_207" data-name="Path 207" d="M220.017,29.4a1.576,1.576,0,0,1-1.625-1.607,1.636,1.636,0,0,1,1.592-1.669A1.725,1.725,0,0,1,221.69,27.8a1.667,1.667,0,0,1-1.673,1.594m.762-1.66c-.349-.232-.6-.521-.754-.473-.214.068-.35.38-.52.589.195.145.39.4.583.4s.377-.268.69-.519" transform="translate(-178.036 -21.295)" fill="#42A4A0"/>
        <path id="Path_208" data-name="Path 208" d="M13.741,111.184a1.638,1.638,0,0,1,1.655-1.6,1.654,1.654,0,1,1-.111,3.307,1.62,1.62,0,0,1-1.544-1.7m1.61.823c.259-.35.556-.589.516-.736-.062-.225-.355-.388-.55-.577-.157.189-.423.369-.439.569s.236.394.472.743" transform="translate(-11.202 -89.332)" fill="#42A4A0"/>
        <path id="Path_209" data-name="Path 209" d="M225.692,32.759c-.313.25-.5.517-.69.519s-.389-.258-.583-.4c.169-.208.306-.521.52-.589.149-.047.4.241.754.473" transform="translate(-182.95 -26.315)" fill="#42A4A0"/>
        <path id="Path_210" data-name="Path 210" d="M20.371,116.916c-.236-.349-.487-.557-.472-.743s.282-.38.439-.569c.195.189.488.351.55.577.04.147-.257.385-.516.736" transform="translate(-16.221 -94.241)" fill="#42A4A0"/>
      </g>
    </g>
    <g id="Group_795" data-name="Group 795" transform="translate(-21052 10914.534)">
      <g id="Group_794" data-name="Group 794" clip-path="url(#clip-path-2)">
        <path id="Path_229" data-name="Path 229" d="M43.972,116.095l-3.487,0-4.557,0c-3.511,0-6.2.006-8.73.021h-.033c-.641,0-.824-.082-.987-.7a3.332,3.332,0,0,0-3.2-2.815.494.494,0,0,1-.169-.182,4.182,4.182,0,0,0-3.8-2.811,4.224,4.224,0,0,0-1.5.285,5.869,5.869,0,0,0-3.831-1.69,3.392,3.392,0,0,0-2.366.91c-1.051.984-1.776,2.76.651,5.657l-.4,1.328-5.534,0q-2.108,0-4.215.006a1.969,1.969,0,0,0-1.463.474,1.734,1.734,0,0,0-.344,1.387l.015.184a25.014,25.014,0,0,0,.567,4.167c1.152,4.544,3.754,7.476,7.734,8.715a19.512,19.512,0,0,0,2.643.561c.326.053.662.109.993.169a4.188,4.188,0,0,0,4.5,3.172H29.522c2.488,0,3.841-.947,4.614-3.253l.346-.026c4.773-.379,8.156-2.614,10.053-6.642a16.847,16.847,0,0,0,1.537-6.8,2.22,2.22,0,0,0-.4-1.665,2.263,2.263,0,0,0-1.7-.446m-27.6-4.7a1.278,1.278,0,0,0,1,.718,1.443,1.443,0,0,0,.883-.392,1.53,1.53,0,0,1,.86-.252.9.9,0,0,1,.327.051,3.441,3.441,0,0,1,1.458,1.19,3.114,3.114,0,0,0,2.362,1.739c.752.212,1.033.814,1.239,1.606a11.493,11.493,0,0,1-1.287.076h0a6.465,6.465,0,0,1-4.207-1.365c-1.074-.843-2.229-1.608-3.216-2.244a1.175,1.175,0,0,0-.644-.151c-.063,0-.127,0-.191,0s-.113,0-.168,0c-.037,0-.073,0-.108,0l-.526-.039.15.505a2.565,2.565,0,0,1,.056.271,1.2,1.2,0,0,0,.356.8c.912.7,1.834,1.362,2.811,2.059l.059.042h-4.11a1.058,1.058,0,0,1,.181-.417,1.3,1.3,0,0,0,.488-.94,1.638,1.638,0,0,0-.711-1.09,4.7,4.7,0,0,1-1.188-1.762,1.219,1.219,0,0,1,.05-1.072,1.507,1.507,0,0,1,1.093-.677,3.607,3.607,0,0,1,.573-.048,2.784,2.784,0,0,1,2.41,1.387m-3.356,9.873c6.812,0,14.117,0,21.379-.011.075,0,.169.008.268.017.122.01.247.021.376.021a1.039,1.039,0,0,0,.765-.261.932.932,0,0,0,.244-.693.845.845,0,0,0-.92-.924,3.366,3.366,0,0,0-.451.041,2.448,2.448,0,0,1-.291.029c-7.3-.015-14.661-.017-21.531-.017H3a3,3,0,0,1-1.11-.09,3.094,3.094,0,0,1-.085-1.143c0-.093.007-.188.015-.293H44.229a2.7,2.7,0,0,1-.016,1.361,3.386,3.386,0,0,1-1.545.164q-.382,0-.765,0c-.256,0-.513,0-.769,0-.43,0-.783.005-1.109.017h-.031c-.071,0-.148-.006-.227-.012-.1-.008-.208-.015-.308-.015a.954.954,0,0,0-.7.239.87.87,0,0,0-.231.642c0,.43.185.942,1.056.942.089,0,.18,0,.268-.009.073,0,.145-.007.212-.007h.029c.864.016,1.742.019,2.591.021l1.166,0a11.48,11.48,0,0,1-2.021,4.757,9.067,9.067,0,0,1-7.61,3.772c-3.893.047-8.069.091-12.237.091-3.7,0-7.024-.034-10.153-.1-5.074-.114-8.485-3.143-9.62-8.534Zm19.125,10.437a2.007,2.007,0,0,1-1.836,1.39c-2.414.017-4.9.026-7.388.026-2.322,0-4.715-.008-7.111-.023a2.011,2.011,0,0,1-1.881-1.394Z" transform="translate(0 -88.52)" fill="#274c5b"/>
        <path id="Path_230" data-name="Path 230" d="M136.355,67.154a11.719,11.719,0,0,0,1.016,2.928,7.708,7.708,0,0,0,6.97,4.043h.01a6.836,6.836,0,0,0,6.5-6.958,10.389,10.389,0,0,0-1.935-6.052,1.271,1.271,0,0,0-.955-.667,1.1,1.1,0,0,0-.757.359l-.168.16c-.968.925-1.969,1.881-2.993,2.771a1.031,1.031,0,0,1-.6.2.562.562,0,0,1-.108-.009,9.9,9.9,0,0,0-1.908-.185,12.794,12.794,0,0,0-4.494.9c-1.006.375-.972,1.074-.861,1.457.1.347.191.71.279,1.061m2.744-1.289.713-.164.149.661Zm2.764.709-.186-.913h.623Zm-3.525.969c1.01.533,1.963,1.037,2.92,1.556a.365.365,0,0,1,.142.163c.252.816.492,1.642.725,2.441l.044.149a6.2,6.2,0,0,1-4-4.4Zm6.687-2.238c.535-.444,1.085-.884,1.667-1.349l.013-.01a26.448,26.448,0,0,1-2.548,7.633,4.278,4.278,0,0,1,.141-5.548,6.248,6.248,0,0,1,.727-.725m1.1,6.4c.473-1.041.766-1.266,2.2-1.835a4.692,4.692,0,0,1-2.2,1.835m2.891-4.329a.54.54,0,0,1-.209.23c-.393.215-.809.412-1.249.618l.966-3.985a7.3,7.3,0,0,1,.492,3.136" transform="translate(-111.284 -49.454)" fill="#274c5b"/>
        <path id="Path_231" data-name="Path 231" d="M27.684,7.1h.106a5.084,5.084,0,0,0,4.044-2.027A4.7,4.7,0,0,0,32.628.908C32.555.66,32.363,0,31.668,0A1.505,1.505,0,0,0,31.2.084C29,.8,26.61,1.559,23.89,2.408A1.192,1.192,0,0,0,23.1,3a1.328,1.328,0,0,0,.077,1.06A4.988,4.988,0,0,0,27.684,7.1M25.251,3.983a1.357,1.357,0,0,1,.427.22,3.135,3.135,0,0,0,2.084.866,3.035,3.035,0,0,0,.838-.122,2.73,2.73,0,0,0,2.065-2.335c.052-.366.138-.507.264-.561A3.089,3.089,0,0,1,28.77,5.164a3.215,3.215,0,0,1-.992.159,3.045,3.045,0,0,1-2.527-1.34m2.655-.773a1.269,1.269,0,0,1-.345-.052L28.6,2.822a.8.8,0,0,1-.691.388" transform="translate(-18.829)" fill="#274c5b"/>
        <path id="Path_232" data-name="Path 232" d="M49.555,48.4a8.664,8.664,0,0,0-3.362,1.281,3.223,3.223,0,0,0-1.062,4.224,2.266,2.266,0,0,0,2.349,1.665,7.886,7.886,0,0,0,.916-.062c.017.092.032.187.048.284.136.837.306,1.879,1.548,2.07a2.033,2.033,0,0,0,.308.022,2.7,2.7,0,0,0,1.848-.711c1.011-1.081.325-2.1-.175-2.839-.052-.078-.1-.153-.152-.228a2.532,2.532,0,0,0,1.472-2.187,3.625,3.625,0,0,0-1.064-2.557,3.2,3.2,0,0,0-2.269-.992,2.9,2.9,0,0,0-.4.028M46.47,52.352c.063-.121.118-.247.172-.369a1.54,1.54,0,0,1,.4-.647,9.21,9.21,0,0,1,2.727-1.165.982.982,0,0,1,.187-.018,1.514,1.514,0,0,1,1.078.542,1.429,1.429,0,0,1,.4,1.066c-.028.248-.422.667-.843.9a2.446,2.446,0,0,0-1.018.756.714.714,0,0,0-.3-.061,2.7,2.7,0,0,0-.9.246,2.244,2.244,0,0,1-.793.172c-.645,0-1.015-.477-1.1-1.418m3.8,2.742a1.746,1.746,0,0,1,.309.428,1.274,1.274,0,0,1,.094.578.9.9,0,0,1-.121.05,1.351,1.351,0,0,1-.308-.509,2.48,2.48,0,0,1-.082-.571c0-.037-.005-.074-.008-.112.038.045.077.09.116.135" transform="translate(-36.628 -39.578)" fill="#274c5b"/>
        <path id="Path_233" data-name="Path 233" d="M150.714,13.155c-.06.1-.125.2-.193.3-.43.66-1.018,1.564-.184,2.549a2.791,2.791,0,0,0,1.933.9c.053,0,.106,0,.157-.007,1.461-.143,1.6-1.335,1.71-2.206.012-.1.023-.188.035-.278.238.019.45.028.641.028a2.376,2.376,0,0,0,2.582-1.883,3.2,3.2,0,0,0-1.213-4.031,9.089,9.089,0,0,0-3.391-1.2A2.931,2.931,0,0,0,152.4,7.3a3.391,3.391,0,0,0-3.129,2.646c-.394,1.452-.029,2.282,1.444,3.21m4.646-2.969a1.354,1.354,0,0,1,.522,1.024,1.471,1.471,0,0,1-.423,1.159,1.238,1.238,0,0,1-.743.191,1.656,1.656,0,0,1-.373-.039l-.142-.034a4.353,4.353,0,0,0-.908-.162.88.88,0,0,0-.34.059,1.173,1.173,0,0,0-.7-.579.8.8,0,0,0-.155-.042l-.021,0-.146-.057c-.753-.29-1.079-.447-.939-1.14.194-.956.926-1.459,2.177-1.495.122.057.264.119.423.187a9.164,9.164,0,0,1,1.765.932M152.4,13.9c-.012.116-.015.232-.019.344a1.483,1.483,0,0,1-.085.577.95.95,0,0,1-.282.161,1.818,1.818,0,0,1-.12-.252,4.928,4.928,0,0,1,.505-.829" transform="translate(-122.002 -5.972)" fill="#274c5b"/>
        <path id="Path_234" data-name="Path 234" d="M212.709,14.206a4.337,4.337,0,0,0-3.051-1.383l-.136,0a4.409,4.409,0,0,0-.122,8.815c.061,0,.121,0,.181,0a4.431,4.431,0,0,0,4.338-4.187,4.485,4.485,0,0,0-1.21-3.246m-.6,3.01a2.63,2.63,0,0,1-.771,1.879,2.523,2.523,0,0,1-1.8.753h-.034a2.665,2.665,0,0,1-2.578-2.6,2.627,2.627,0,0,1,2.6-2.614h.021a2.592,2.592,0,0,1,2.555,2.581" transform="translate(-167.842 -10.489)" fill="#274c5b"/>
        <path id="Path_235" data-name="Path 235" d="M4.644,105.242h0a4.4,4.4,0,0,0,4.421-4.367,4.325,4.325,0,0,0-1.293-3.1,4.42,4.42,0,0,0-7.538,3.08,4.319,4.319,0,0,0,1.278,3.077,4.4,4.4,0,0,0,3.131,1.3M4.662,98.3a2.6,2.6,0,0,1,2.592,2.542,2.534,2.534,0,0,1-.741,1.821,2.618,2.618,0,0,1-4.479-1.769,2.508,2.508,0,0,1,.733-1.808A2.628,2.628,0,0,1,4.654,98.3v-.363Z" transform="translate(-0.192 -78.942)" fill="#274c5b"/>
        <path id="Path_236" data-name="Path 236" d="M9.666,59.158a3.257,3.257,0,0,0,1.476.461,1.158,1.158,0,0,0,.507-.1,1.913,1.913,0,0,0,.773-1.173c.065-.178.126-.346.2-.488l.047-.1-.012-.105A3.158,3.158,0,0,0,9.87,54.678H9.839a1.6,1.6,0,0,0-1.247.754,2.889,2.889,0,0,0,1.074,3.726m.492-2.468a.9.9,0,0,1,.5.917.854.854,0,0,1-.388-.326,1.011,1.011,0,0,1-.115-.592" transform="translate(-6.788 -44.733)" fill="#274c5b"/>
        <path id="Path_237" data-name="Path 237" d="M105.617,43.257l.1,0a3.009,3.009,0,0,0,2.945-3.058,1.943,1.943,0,0,0-.278-1.207,1.329,1.329,0,0,0-1.1-.395c-.088,0-.182,0-.283.008a2.916,2.916,0,0,0-2.076,1.037,3.129,3.129,0,0,0-.727,2.348,1.271,1.271,0,0,0,1.412,1.268m.476-1.953a.8.8,0,0,1,.154-.445.981.981,0,0,1,.531-.316.846.846,0,0,1-.685.761" transform="translate(-85.24 -31.577)" fill="#274c5b"/>
        <path id="Path_238" data-name="Path 238" d="M223.018,113.724c.239.9,1.332,2.064,2.165,2.064.024,0,.049,0,.072,0,.847-.069,1.6-1.5,1.6-2.571a3.021,3.021,0,0,0-1.492-2.643,1.507,1.507,0,0,0-.764-.236,1.239,1.239,0,0,0-.973.522,3.08,3.08,0,0,0-.61,2.866M224.8,112.5a.877.877,0,0,1,.175,1.058c-.3-.265-.373-.547-.175-1.058" transform="translate(-182.359 -90.269)" fill="#274c5b"/>
        <path id="Path_239" data-name="Path 239" d="M100.154,87.759h.028a1.9,1.9,0,0,0,1.924-1.977,1.972,1.972,0,1,0-3.943-.036,1.938,1.938,0,0,0,.549,1.416,1.993,1.993,0,0,0,1.443.6m.009-2.015c.029.026.057.053.077.075-.022.036-.056.084-.088.129l-.1-.1c.031-.034.07-.072.108-.107" transform="translate(-80.31 -68.549)" fill="#274c5b"/>
        <path id="Path_240" data-name="Path 240" d="M226.3,76.588h.054a2.089,2.089,0,0,0,2-1.919,1.919,1.919,0,0,0-.511-1.391,2.014,2.014,0,0,0-1.383-.666l-.1,0a1.942,1.942,0,0,0-1.973,1.846,2.052,2.052,0,0,0,.534,1.491,1.946,1.946,0,0,0,1.381.641m.033-1.956c-.029-.028-.059-.058-.079-.082.024-.037.061-.086.1-.131.032.033.068.071.1.1-.034.035-.075.073-.116.108" transform="translate(-183.572 -59.405)" fill="#274c5b"/>
        <path id="Path_241" data-name="Path 241" d="M231.973,227.251l-.088-.052h-.1c-.349,0-.744.695-.747.7l-.1.23.158.175a9.438,9.438,0,0,0,1.222,1.15l.106.079h.125c.178,0,.29-.1.589-.366.1-.093.226-.2.353-.306l.364-.3-.718-.516c-.42-.3-.783-.566-1.165-.794" transform="translate(-188.939 -185.879)" fill="#274c5b"/>
        <path id="Path_242" data-name="Path 242" d="M222.081,232.262c-.227-.33-.442-.642-.786-.657h-.061a.824.824,0,0,0-.618.233,1.224,1.224,0,0,0-.232.938c0,.064,0,.127,0,.186l0,.072a1.287,1.287,0,0,0,.239.97.736.736,0,0,0,.546.214,1.186,1.186,0,0,0,.187-.015c.338-.053.536-.362.745-.688.086-.134.174-.272.275-.4l.184-.233-.191-.227c-.1-.123-.2-.26-.289-.393" transform="translate(-180.3 -189.483)" fill="#274c5b"/>
        <path id="Path_243" data-name="Path 243" d="M236.4,216.984a1.63,1.63,0,0,0-.891-.378,1.539,1.539,0,0,0-.875.395c-.092.068-.179.132-.26.18l-.44.262,1.587,1.335,1.607-1.363-.459-.255c-.085-.047-.175-.109-.27-.175" transform="translate(-191.392 -177.212)" fill="#274c5b"/>
        <path id="Path_244" data-name="Path 244" d="M201.05,172.247l.279.443.317-.416c.075-.1.153-.184.227-.267a.962.962,0,0,0,.348-.669.989.989,0,0,0-.8-.826H201.4a1,1,0,0,0-.838.757.948.948,0,0,0,.284.7c.067.088.135.18.2.284" transform="translate(-164.084 -139.5)" fill="#274c5b"/>
        <path id="Path_245" data-name="Path 245" d="M220.359,26.121h-.046a1.973,1.973,0,0,0-1.921,2.008,1.921,1.921,0,0,0,1.962,1.944h0a2,2,0,0,0,2.007-1.925,1.976,1.976,0,0,0-.584-1.4,2.018,2.018,0,0,0-1.422-.624m.173,1.98c-.039.037-.081.074-.113.1-.025-.019-.054-.044-.083-.07.027-.04.057-.083.083-.117.035.026.075.058.112.087" transform="translate(-178.674 -21.37)" fill="#274c5b"/>
        <path id="Path_246" data-name="Path 246" d="M13.742,111.513a1.969,1.969,0,0,0,1.866,2.05l.092,0a1.992,1.992,0,0,0,.043-3.983h-.049a1.981,1.981,0,0,0-1.953,1.932m1.96.234c-.036-.045-.072-.092-.1-.128.019-.024.047-.054.075-.082.04.033.081.069.113.1-.028.034-.062.074-.093.109" transform="translate(-11.242 -89.652)" fill="#274c5b"/>
      </g>
    </g>
  </g>
</svg>
