<svg xmlns="http://www.w3.org/2000/svg" width="24.277" height="21.816" viewBox="0 0 24.277 21.816">
  <path id="Union_11" data-name="Union 11" d="M22183.813-10097.795v-7.334a1.145,1.145,0,0,1-.006-.145c.01-.908,0-1.822.006-2.73a.478.478,0,0,0-.262-.5,2.935,2.935,0,0,1-1.551-2.742,14.126,14.126,0,0,1,.2-2.658,4.321,4.321,0,0,1,2.268-2.875,1.576,1.576,0,0,1,1.605,0,4.816,4.816,0,0,1,2,2.078,9.769,9.769,0,0,1,7.205-1.565,9.848,9.848,0,0,1,6.309,3.884c.094-.312.16-.562.244-.808a7.128,7.128,0,0,1,2.58-3.595.722.722,0,0,1,.6-.139.7.7,0,0,1,.258.557q.023,9.346.01,18.691a1.433,1.433,0,0,1-1.443,1.488,1.438,1.438,0,0,1-1.459-1.478c-.012-1.271-.006-2.547-.006-3.817v-.513a9.943,9.943,0,0,1-15.648,2.419v1.761a1.46,1.46,0,0,1-1.443,1.628h-.012A1.456,1.456,0,0,1,22183.813-10097.795Zm.98-18.14a3.779,3.779,0,0,0-1.889,3.227c-.018.5-.012,1-.006,1.5a2.091,2.091,0,0,0,1.336,2.028.709.709,0,0,1,.492.758c-.018.764-.018,1.521-.012,2.285v.3c.006.185.006.368.006.552a1.161,1.161,0,0,1-.006.146v4.246c.006.066.006.134.006.2-.006.959-.006,1.912,0,2.87,0,.474.2.73.551.725s.541-.256.541-.741c0-3.517.006-7.033-.006-10.555a.734.734,0,0,1,.5-.791,2.064,2.064,0,0,0,1.32-2.046,13.892,13.892,0,0,0-.105-2.212,3.569,3.569,0,0,0-1.795-2.5.866.866,0,0,0-.463-.146A.882.882,0,0,0,22184.793-10115.935Zm17.688,3.968c-.133,1.4-.084,2.809-.111,4.219a3.108,3.108,0,0,0,.641,1.851,1.362,1.362,0,0,1,.256.729c.023,2.408.012,4.82.012,7.229,0,.134-.045.312.023.4.133.172.34.423.5.412.2-.012.4-.24.553-.412.066-.084.021-.263.021-.4v-17.649A5.834,5.834,0,0,0,22202.48-10111.967Zm-13.764-2.051a.682.682,0,0,0-.252.49c0,.759.066,1.517.072,2.269a2.984,2.984,0,0,1-1.543,2.747.5.5,0,0,0-.279.5c.012,1.12.006,2.24.006,3.366,0,1.1-.012,2.213.012,3.315a1.055,1.055,0,0,0,.234.646,8.677,8.677,0,0,0,7.779,2.932,8.9,8.9,0,0,0,7.59-6.849,1.273,1.273,0,0,0-.178-.981,3.633,3.633,0,0,1-.592-1.448c-.111-1.138-.066-2.3-.111-3.444a1.581,1.581,0,0,0-.217-.758,8.751,8.751,0,0,0-6.521-4.2,8.974,8.974,0,0,0-1.18-.078A8.616,8.616,0,0,0,22188.717-10114.018Zm-.541,7.379a5.446,5.446,0,0,1,5.494-5.417,5.451,5.451,0,0,1,5.428,5.489,5.455,5.455,0,0,1-5.479,5.439A5.448,5.448,0,0,1,22188.176-10106.639Zm.9.027a4.534,4.534,0,0,0,4.537,4.575,4.53,4.53,0,0,0,4.574-4.536,4.53,4.53,0,0,0-4.531-4.575h-.01A4.532,4.532,0,0,0,22189.078-10106.611Z" transform="translate(-22181.5 10117.506)" fill="#42a4a0" stroke="rgba(0,0,0,0)" stroke-miterlimit="10" stroke-width="1"/>
</svg>
