<svg xmlns="http://www.w3.org/2000/svg" xmlns:xlink="http://www.w3.org/1999/xlink" width="26.192" height="26.193" viewBox="0 0 26.192 26.193">
  <defs>
    <clipPath id="clip-path">
      <rect id="Rectangle_1332" data-name="Rectangle 1332" width="26.192" height="26.193" fill="#274c5b"/>
    </clipPath>
  </defs>
  <g id="Group_815" data-name="Group 815" transform="translate(0.001)">
    <g id="Group_814" data-name="Group 814" transform="translate(-0.001 0)" clip-path="url(#clip-path)">
      <path id="Path_268" data-name="Path 268" d="M13.073,26.193A13.1,13.1,0,1,1,26.192,13.171,13.1,13.1,0,0,1,13.073,26.193M9.89,14.591a5.39,5.39,0,1,1,6.949-8.21,5.46,5.46,0,0,1-.537,8.212,10.134,10.134,0,0,1,5.951,5.473A11.468,11.468,0,0,0,20.616,4.313,11.593,11.593,0,0,0,4.207,5.7C.1,10.682,1.311,17.1,3.958,20.025A10.127,10.127,0,0,1,9.89,14.591M13.1,15.6a8.525,8.525,0,0,0-7.855,5.31.655.655,0,0,0,.211.865,11.571,11.571,0,0,0,15.273.007.681.681,0,0,0,.2-.911A8.517,8.517,0,0,0,13.1,15.6m3.834-5.316a3.839,3.839,0,1,0-3.891,3.786,3.853,3.853,0,0,0,3.891-3.786" transform="translate(0 0)" fill="#274c5b"/>
      <path id="Path_269" data-name="Path 269" d="M23.343,28.079a10.127,10.127,0,0,0-5.933,5.434c-2.647-2.924-3.856-9.343.249-14.33A11.593,11.593,0,0,1,34.069,17.8a11.468,11.468,0,0,1,1.637,15.753,10.133,10.133,0,0,0-5.951-5.473,5.391,5.391,0,1,0-6.412,0" transform="translate(-13.453 -13.488)" fill="#f9f8f8"/>
      <path id="Path_270" data-name="Path 270" d="M58.289,152.051a8.517,8.517,0,0,1,7.828,5.271.681.681,0,0,1-.2.911,11.571,11.571,0,0,1-15.273-.007.655.655,0,0,1-.211-.865,8.525,8.525,0,0,1,7.855-5.31" transform="translate(-45.189 -136.451)" fill="#f9f8f8"/>
      <path id="Path_271" data-name="Path 271" d="M97.9,66.19A3.839,3.839,0,1,1,94.115,62.3,3.853,3.853,0,0,1,97.9,66.19" transform="translate(-80.967 -55.907)" fill="#f9f8f8"/>
    </g>
  </g>
</svg>
