<svg xmlns="http://www.w3.org/2000/svg" xmlns:xlink="http://www.w3.org/1999/xlink" width="21.176" height="28.72" viewBox="0 0 21.176 28.72">
  <defs>
    <clipPath id="clip-path">
      <rect id="Rectangle_1331" data-name="Rectangle 1331" width="21.176" height="28.72" fill="#274c5b"/>
    </clipPath>
    <clipPath id="clip-path-2">
      <rect id="Rectangle_1330" data-name="Rectangle 1330" width="21.117" height="28.661" fill="#274c5b"/>
    </clipPath>
    <clipPath id="clip-path-3">
      <rect id="Rectangle_1329" data-name="Rectangle 1329" width="21.117" height="28.661" fill="#eff6f1"/>
    </clipPath>
  </defs>
  <g id="Group_813" data-name="Group 813" transform="translate(0)">
    <g id="Group_812" data-name="Group 812" transform="translate(0 0)" clip-path="url(#clip-path)">
      <g id="Group_811" data-name="Group 811" transform="translate(0.03 0.03)">
        <g id="Group_810" data-name="Group 810" clip-path="url(#clip-path-2)">
          <g id="Group_809" data-name="Group 809">
            <g id="Group_808" data-name="Group 808" clip-path="url(#clip-path-3)">
              <path id="Path_261" data-name="Path 261" d="M64.2,136.152a.75.75,0,0,1-.049.372c-.061.065-.369.066-.5.066H56.8c-.12,0-.438,0-.5-.066a.76.76,0,0,1-.046-.372Z" transform="translate(-49.664 -120.166)" fill="#f9f8f8"/>
              <path id="Path_262" data-name="Path 262" d="M21.363,2.413c.006,6.839.007,13.86,0,21.464a2.1,2.1,0,0,1-2.2,2.179q-1.946,0-3.892,0H9.638c0,.112,0,.224,0,.334.006.473.011.92-.018,1.379a2.094,2.094,0,0,1-.184.646c-.034.085-.067.165-.094.243l-.084.253L9.022,28.8c-.079-.038-.162-.071-.251-.107a2.062,2.062,0,0,1-.618-.334,11.754,11.754,0,0,1-.869-.875l-.22-.236-.251.261c-.348.363-.678.706-1.028,1.03a1.156,1.156,0,0,1-.668.293.379.379,0,0,1-.2-.053,1.073,1.073,0,0,1-.423-.8c-.027-.493-.024-.988-.018-1.512,0-.134,0-.271,0-.411H4.221l-.445,0c-.176,0-.351,0-.523-.006A3.025,3.025,0,0,1,.259,23.044C.249,16.65.249,10,.259,3.28A3.007,3.007,0,0,1,3.3.259Q7.1.25,10.9.252q4.148,0,8.3.006a2.092,2.092,0,0,1,2.164,2.155M19.938,24.072c.034-.676.028-1.346.021-2.054,0-.216,0-.433-.006-.653H5.91q-1.3,0-2.6.007a1.645,1.645,0,0,0-1.647,1.456A1.616,1.616,0,0,0,2.941,24.6a3.982,3.982,0,0,0,.634.044c.18,0,.366-.007.546-.014.108,0,.218-.009.327-.012v-.906l-.051,0c-.1,0-.2.009-.291.009a1.639,1.639,0,0,1-.428-.048.892.892,0,0,1-.572-.659c-.047-.332.442-.625.5-.658a.584.584,0,0,1,.3-.068c.053,0,.107,0,.162.008s.082.007.121.007H17.9c.039,0,.08,0,.122-.007s.109-.008.161-.008a.57.57,0,0,1,.3.068c.092.052.546.331.5.655a1.073,1.073,0,0,1-.506.639.53.53,0,0,1-.3.076,1.677,1.677,0,0,1-.168-.011c-.041,0-.084-.008-.122-.008H9.67v.938h4.608c1.37,0,3.181,0,5.027-.008a.586.586,0,0,0,.633-.571m.024-4.295V18.352q0-7.9,0-15.806c0-.653-.241-.885-.921-.885l-8.131,0-7.461,0A1.646,1.646,0,0,0,1.66,3.487q0,8.441,0,16.88c0,.028,0,.058,0,.088a4.012,4.012,0,0,1,2.238-.5h.045c2.214.006,4.579.008,7.668.008l8.34,0c0-.067.007-.125.007-.182m-11.776,6.7V23.739H5.932v2.744c.175-.193.328-.362.478-.533a.877.877,0,0,1,.648-.352.863.863,0,0,1,.635.339c.155.173.314.345.493.535" transform="translate(-0.251 -0.252)" fill="#274c5b"/>
              <path id="Path_263" data-name="Path 263" d="M30.5,180.377c.007.708.013,1.377-.021,2.054a.586.586,0,0,1-.633.571c-1.847.007-3.657.008-5.027.008H20.214v-.937h8.22c.039,0,.081,0,.122.008a1.675,1.675,0,0,0,.168.011.53.53,0,0,0,.3-.076,1.073,1.073,0,0,0,.506-.639c.045-.325-.409-.6-.5-.655a.569.569,0,0,0-.3-.068c-.052,0-.107,0-.161.008s-.084.007-.122.007H14.727c-.039,0-.08,0-.121-.007s-.109-.008-.162-.008a.584.584,0,0,0-.3.068c-.055.033-.545.326-.5.658a.892.892,0,0,0,.572.659,1.637,1.637,0,0,0,.428.048c.094,0,.192,0,.291-.009l.051,0v.906c-.109,0-.219.007-.327.012-.18.007-.366.014-.546.014a3.982,3.982,0,0,1-.634-.044,1.616,1.616,0,0,1-1.275-1.774,1.645,1.645,0,0,1,1.647-1.456q1.3-.009,2.6-.007H30.5c0,.22,0,.436.006.653" transform="translate(-10.795 -158.611)" fill="#f9f8f8"/>
              <path id="Path_264" data-name="Path 264" d="M30.526,28.9v1.426c0,.058,0,.115-.007.182l-8.34,0c-3.089,0-5.454,0-7.668-.008h-.045a4.012,4.012,0,0,0-2.238.5c0-.031,0-.06,0-.088q0-8.439,0-16.88a1.646,1.646,0,0,1,1.787-1.826l7.461,0,8.131,0c.68,0,.921.232.921.885q0,7.9,0,15.806m-3.494-5.47a3.965,3.965,0,0,0-1.93-7.454h-.026a.554.554,0,0,1-.518-.274,3.986,3.986,0,0,0-3.174-1.621,4.118,4.118,0,0,0-3.235,1.635.726.726,0,0,1-.468.235,4.035,4.035,0,0,0-3.912,2.973,3.931,3.931,0,0,0,1.983,4.525.379.379,0,0,1,.233.431c-.013.94-.009,1.9,0,2.82v.114a1.67,1.67,0,0,0,1.837,1.815q.706,0,1.412,0h4.337c.468,0,.935,0,1.4,0a1.662,1.662,0,0,0,1.8-1.8v-.071c0-.939.011-1.909-.006-2.864a.418.418,0,0,1,.268-.467" transform="translate(-10.816 -10.805)" fill="#f9f8f8"/>
              <path id="Path_265" data-name="Path 265" d="M39.564,33a3.947,3.947,0,0,1-1.954,4.488.418.418,0,0,0-.268.467c.016.955.011,1.926.006,2.864v.071a1.662,1.662,0,0,1-1.8,1.8c-.468,0-.935,0-1.4,0H29.809q-.706,0-1.412,0a1.67,1.67,0,0,1-1.837-1.815V40.76c0-.925-.008-1.88,0-2.82a.379.379,0,0,0-.233-.431,3.931,3.931,0,0,1-1.983-4.525,4.035,4.035,0,0,1,3.912-2.973.726.726,0,0,0,.468-.235,4.118,4.118,0,0,1,3.235-1.635,3.986,3.986,0,0,1,3.174,1.621.554.554,0,0,0,.518.274h.026A3.969,3.969,0,0,1,39.564,33m-1.456,1.944a2.439,2.439,0,0,0-.382-2.526,2.408,2.408,0,0,0-1.835-.974c0,.006,0,.011,0,.015a1.661,1.661,0,0,1,.02.654,1.059,1.059,0,0,1-.333.487c-.049.051-.1.1-.135.144l-.162.194-.182-.176c-.045-.044-.091-.086-.138-.129a3.9,3.9,0,0,1-.365-.372.45.45,0,0,1-.074-.339.383.383,0,0,0,0-.071,2.643,2.643,0,0,0-2.336-2.3c-.071,0-.141-.008-.212-.008a2.563,2.563,0,0,0-2.5,1.9,1.657,1.657,0,0,0-.041.283,1.528,1.528,0,0,1-.1.491,1.2,1.2,0,0,1-.349.412c-.049.044-.1.084-.135.124l-.168.171-.167-.171c-.041-.042-.093-.085-.147-.131A.978.978,0,0,1,28,32.163a1.626,1.626,0,0,1,.014-.661.2.2,0,0,0,0-.026,2.548,2.548,0,0,0-2.4,2.384A2.557,2.557,0,0,0,28.2,36.575a2.9,2.9,0,0,0,.566-.058,1.806,1.806,0,0,1,.352-.041.647.647,0,0,1,.682.533.662.662,0,0,1-.082.543.918.918,0,0,1-.663.338c-.3.041-.594.078-.883.113l-.171.02v1.34h7.909v-1.34L35.726,38c-.287-.034-.563-.067-.841-.1a.992.992,0,0,1-.687-.326.651.651,0,0,1-.1-.516.642.642,0,0,1,.685-.578,1.983,1.983,0,0,1,.38.047,2.686,2.686,0,0,0,.562.059,2.532,2.532,0,0,0,2.386-1.635m-2.231,6.271a.751.751,0,0,0,.049-.372H27.982a.76.76,0,0,0,.046.372c.061.065.379.066.5.066h6.848c.132,0,.44,0,.5-.066" transform="translate(-21.394 -24.861)" fill="#274c5b"/>
              <path id="Path_266" data-name="Path 266" d="M48.263,42.985a2.439,2.439,0,0,1,.382,2.526,2.532,2.532,0,0,1-2.386,1.635,2.686,2.686,0,0,1-.562-.059,1.983,1.983,0,0,0-.38-.047.642.642,0,0,0-.685.578.652.652,0,0,0,.1.516.992.992,0,0,0,.687.326c.278.036.554.069.841.1l.188.022v1.34H38.542v-1.34l.171-.02c.289-.035.588-.072.883-.113a.918.918,0,0,0,.663-.338.662.662,0,0,0,.082-.543.647.647,0,0,0-.682-.533,1.805,1.805,0,0,0-.352.041,2.9,2.9,0,0,1-.566.058,2.557,2.557,0,0,1-2.584-2.715,2.548,2.548,0,0,1,2.4-2.384.2.2,0,0,1,0,.026,1.626,1.626,0,0,0-.014.661.978.978,0,0,0,.371.469c.054.046.106.088.147.131l.167.171.168-.171c.04-.04.086-.08.135-.124a1.2,1.2,0,0,0,.349-.412,1.528,1.528,0,0,0,.1-.491,1.658,1.658,0,0,1,.041-.283,2.563,2.563,0,0,1,2.5-1.9c.071,0,.141,0,.212.008a2.643,2.643,0,0,1,2.336,2.3.382.382,0,0,1,0,.071.45.45,0,0,0,.074.339,3.9,3.9,0,0,0,.365.372c.047.044.093.086.138.129l.182.176.162-.194c.038-.046.086-.093.135-.144a1.059,1.059,0,0,0,.333-.487,1.661,1.661,0,0,0-.02-.654s0-.009,0-.015a2.408,2.408,0,0,1,1.835.974" transform="translate(-31.931 -35.423)" fill="#f9f8f8"/>
              <path id="Path_267" data-name="Path 267" d="M50.793,199.922v2.734c-.179-.191-.338-.362-.493-.535a.863.863,0,0,0-.635-.339.877.877,0,0,0-.648.352c-.149.171-.3.34-.478.533v-2.744Z" transform="translate(-42.859 -176.435)" fill="#f9f8f8"/>
            </g>
          </g>
        </g>
      </g>
    </g>
  </g>
</svg>
