<svg id="Group_817" data-name="Group 817" xmlns="http://www.w3.org/2000/svg" xmlns:xlink="http://www.w3.org/1999/xlink" width="25.652" height="34.792" viewBox="0 0 25.652 34.792">
  <defs>
    <clipPath id="clip-path">
      <rect id="Rectangle_1331" data-name="Rectangle 1331" width="25.653" height="34.792" fill="#274c5b"/>
    </clipPath>
    <clipPath id="clip-path-2">
      <rect id="Rectangle_1330" data-name="Rectangle 1330" width="25.582" height="34.72" fill="#274c5b"/>
    </clipPath>
  </defs>
  <g id="Group_812" data-name="Group 812" clip-path="url(#clip-path)">
    <g id="Group_811" data-name="Group 811" transform="translate(0.036 0.036)">
      <g id="Group_810" data-name="Group 810" clip-path="url(#clip-path-2)">
        <g id="Group_809" data-name="Group 809">
          <g id="Group_808" data-name="Group 808" clip-path="url(#clip-path-2)">
            <path id="Path_261" data-name="Path 261" d="M65.876,136.152a.909.909,0,0,1-.06.45c-.074.078-.447.08-.607.08h-8.3c-.145,0-.53,0-.6-.08a.921.921,0,0,1-.056-.45Z" transform="translate(-48.272 -116.786)" fill="#42A4A0"/>
            <path id="Path_262" data-name="Path 262" d="M25.827,2.87c.007,8.285.009,16.791,0,26a2.545,2.545,0,0,1-2.668,2.639q-2.358,0-4.715,0H11.623c0,.135,0,.271,0,.4.007.573.013,1.114-.021,1.67a2.537,2.537,0,0,1-.222.782c-.041.1-.081.2-.114.295l-.1.306-.292-.14c-.1-.046-.2-.085-.3-.13a2.5,2.5,0,0,1-.748-.4,14.238,14.238,0,0,1-1.053-1.06c-.087-.094-.175-.19-.266-.286l-.3.316c-.422.44-.821.855-1.245,1.248a1.4,1.4,0,0,1-.809.355.459.459,0,0,1-.245-.064,1.3,1.3,0,0,1-.513-.965c-.033-.6-.029-1.2-.021-1.831,0-.162,0-.328,0-.5H5.061l-.539,0c-.214,0-.425,0-.634-.007A3.664,3.664,0,0,1,.261,27.863c-.013-7.746-.013-15.8,0-23.943A3.642,3.642,0,0,1,3.95.261Q8.552.25,13.156.252q5.025,0,10.049.007A2.534,2.534,0,0,1,25.827,2.87M24.1,29.108c.041-.819.034-1.63.026-2.488,0-.262-.006-.524-.007-.791H7.107q-1.573,0-3.146.009A1.993,1.993,0,0,0,1.965,27.6,1.958,1.958,0,0,0,3.51,29.748a4.824,4.824,0,0,0,.768.053c.218,0,.443-.009.661-.017.131-.006.264-.011.4-.014v-1.1l-.061,0c-.12.006-.238.011-.352.011a1.985,1.985,0,0,1-.519-.058,1.08,1.08,0,0,1-.693-.8c-.057-.4.536-.757.6-.8a.708.708,0,0,1,.358-.083c.064,0,.13,0,.2.01.05,0,.1.009.147.009H21.636c.047,0,.1,0,.148-.009s.133-.01.2-.01a.69.69,0,0,1,.358.083c.111.063.661.4.607.794a1.3,1.3,0,0,1-.613.774.643.643,0,0,1-.361.093,2.031,2.031,0,0,1-.2-.013c-.05,0-.1-.01-.148-.01H11.661v1.136h5.582c1.66,0,3.853,0,6.09-.01a.71.71,0,0,0,.767-.691m.029-5.2V22.178q0-9.574,0-19.148c0-.791-.292-1.072-1.116-1.072l-9.85,0-9.039,0A1.994,1.994,0,0,0,1.958,4.171q0,10.226,0,20.449c0,.034,0,.07,0,.107a4.86,4.86,0,0,1,2.712-.607h.054c2.682.007,5.548.01,9.29.01l10.1,0c0-.081.009-.151.009-.221M9.863,32.017V28.7H7.132V32.03c.212-.234.4-.439.579-.646a1.063,1.063,0,0,1,.785-.426,1.045,1.045,0,0,1,.769.41c.188.209.38.418.6.648" transform="translate(-0.251 -0.252)" fill="#274c5b"/>
            <path id="Path_263" data-name="Path 263" d="M34.372,180.516c.009.858.016,1.669-.026,2.488a.71.71,0,0,1-.767.691c-2.237.009-4.43.01-6.09.01H21.908v-1.136h9.958c.047,0,.1.006.148.01a2.032,2.032,0,0,0,.2.013.643.643,0,0,0,.361-.093,1.3,1.3,0,0,0,.613-.774c.054-.393-.5-.731-.607-.794a.69.69,0,0,0-.358-.083c-.063,0-.13,0-.2.01s-.1.009-.148.009H15.261c-.047,0-.1,0-.147-.009-.067-.006-.133-.01-.2-.01a.707.707,0,0,0-.358.083c-.067.04-.66.395-.6.8a1.08,1.08,0,0,0,.693.8,1.984,1.984,0,0,0,.519.058c.114,0,.232-.006.352-.011l.061,0v1.1c-.133,0-.265.009-.4.014-.218.009-.443.017-.661.017a4.825,4.825,0,0,1-.768-.053,1.958,1.958,0,0,1-1.545-2.149,1.993,1.993,0,0,1,1.995-1.764q1.573-.011,3.146-.009H34.365c0,.266,0,.529.007.791" transform="translate(-10.498 -154.148)" fill="#42A4A0"/>
            <path id="Path_264" data-name="Path 264" d="M34.4,32.434v1.727c0,.07,0,.14-.009.221l-10.1,0c-3.742,0-6.608,0-9.29-.01H14.94a4.86,4.86,0,0,0-2.712.607c0-.037,0-.073,0-.107q0-10.224,0-20.449a1.994,1.994,0,0,1,2.165-2.212l9.039,0,9.85,0c.824,0,1.116.281,1.116,1.072q0,9.574,0,19.148m-4.232-6.626a4.8,4.8,0,0,0-2.338-9.03h-.031a.671.671,0,0,1-.627-.332,4.828,4.828,0,0,0-3.845-1.964A4.989,4.989,0,0,0,19.4,16.463a.879.879,0,0,1-.567.285,4.888,4.888,0,0,0-4.74,3.6,4.762,4.762,0,0,0,2.4,5.482.459.459,0,0,1,.282.522c-.016,1.139-.011,2.3-.006,3.416v.138A2.023,2.023,0,0,0,19,32.105q.855,0,1.71,0h5.254c.567,0,1.133,0,1.7,0a2.014,2.014,0,0,0,2.177-2.176v-.086c.006-1.137.013-2.313-.007-3.47a.507.507,0,0,1,.325-.566" transform="translate(-10.518 -10.508)" fill="#42A4A0"/>
            <path id="Path_265" data-name="Path 265" d="M42.81,34.032a4.781,4.781,0,0,1-2.367,5.436.507.507,0,0,0-.325.566c.02,1.157.013,2.333.007,3.47v.086a2.014,2.014,0,0,1-2.177,2.176c-.567,0-1.133,0-1.7,0H30.992q-.855,0-1.71,0a2.023,2.023,0,0,1-2.226-2.2v-.138c-.006-1.12-.01-2.277.006-3.416a.459.459,0,0,0-.282-.522,4.762,4.762,0,0,1-2.4-5.482,4.888,4.888,0,0,1,4.74-3.6.879.879,0,0,0,.567-.285A4.989,4.989,0,0,1,33.6,28.142a4.828,4.828,0,0,1,3.845,1.964.671.671,0,0,0,.627.332H38.1a4.809,4.809,0,0,1,4.705,3.594m-1.764,2.356a2.955,2.955,0,0,0-.463-3.059,2.917,2.917,0,0,0-2.223-1.18c0,.007,0,.013,0,.019a2.012,2.012,0,0,1,.024.792,1.283,1.283,0,0,1-.4.59c-.06.061-.118.118-.164.174l-.2.235-.221-.214c-.054-.053-.11-.1-.167-.157a4.722,4.722,0,0,1-.442-.45.545.545,0,0,1-.09-.41.463.463,0,0,0,0-.086,3.2,3.2,0,0,0-2.83-2.783c-.085-.006-.171-.01-.257-.01a3.1,3.1,0,0,0-3.03,2.306,2.008,2.008,0,0,0-.05.343,1.852,1.852,0,0,1-.123.594,1.452,1.452,0,0,1-.423.5c-.06.053-.115.1-.164.15l-.2.207-.2-.207c-.05-.051-.113-.1-.178-.158a1.184,1.184,0,0,1-.449-.569,1.97,1.97,0,0,1,.017-.8.242.242,0,0,0,.006-.031,3.087,3.087,0,0,0-2.9,2.888,3.1,3.1,0,0,0,3.131,3.289,3.507,3.507,0,0,0,.685-.07,2.188,2.188,0,0,1,.426-.05.784.784,0,0,1,.827.646.8.8,0,0,1-.1.658,1.113,1.113,0,0,1-.8.409c-.358.05-.72.094-1.07.137l-.207.024v1.623h9.582V40.112l-.228-.027c-.348-.041-.683-.081-1.019-.125a1.2,1.2,0,0,1-.832-.395.789.789,0,0,1-.124-.626.778.778,0,0,1,.829-.7,2.4,2.4,0,0,1,.46.057,3.253,3.253,0,0,0,.681.071,3.067,3.067,0,0,0,2.89-1.981m-2.7,7.6a.909.909,0,0,0,.06-.45H28.779a.92.92,0,0,0,.056.45c.074.078.459.08.6.08h8.3c.16,0,.533,0,.607-.08" transform="translate(-20.798 -24.168)" fill="#274c5b"/>
            <path id="Path_266" data-name="Path 266" d="M50.823,43.592a2.955,2.955,0,0,1,.463,3.059,3.067,3.067,0,0,1-2.89,1.981,3.253,3.253,0,0,1-.681-.071,2.4,2.4,0,0,0-.46-.057.778.778,0,0,0-.829.7.789.789,0,0,0,.124.626,1.2,1.2,0,0,0,.832.395c.336.044.671.084,1.019.125l.228.027V52H39.046V50.376l.207-.024c.351-.043.712-.087,1.07-.137a1.113,1.113,0,0,0,.8-.409.8.8,0,0,0,.1-.658A.784.784,0,0,0,40.4,48.5a2.187,2.187,0,0,0-.426.05,3.508,3.508,0,0,1-.685.07,3.1,3.1,0,0,1-3.131-3.289,3.087,3.087,0,0,1,2.9-2.888.243.243,0,0,1-.006.031,1.97,1.97,0,0,0-.017.8,1.185,1.185,0,0,0,.449.569c.066.056.128.107.178.158l.2.207.2-.207c.048-.048.1-.1.164-.15a1.452,1.452,0,0,0,.423-.5,1.851,1.851,0,0,0,.123-.594,2.008,2.008,0,0,1,.05-.343,3.1,3.1,0,0,1,3.03-2.306c.086,0,.171,0,.257.01a3.2,3.2,0,0,1,2.83,2.783.463.463,0,0,1,0,.085.545.545,0,0,0,.09.41,4.721,4.721,0,0,0,.442.45c.057.053.113.1.167.157l.221.214.2-.235c.046-.056.1-.113.164-.174a1.283,1.283,0,0,0,.4-.59,2.012,2.012,0,0,0-.024-.792c0-.006,0-.011,0-.019a2.917,2.917,0,0,1,2.223,1.18" transform="translate(-31.038 -34.432)" fill="#42A4A0"/>
            <path id="Path_267" data-name="Path 267" d="M51.269,199.922v3.312c-.217-.231-.409-.439-.6-.648a1.045,1.045,0,0,0-.77-.41,1.063,1.063,0,0,0-.785.426c-.181.207-.366.412-.579.646v-3.325Z" transform="translate(-41.658 -171.469)" fill="#42A4A0"/>
          </g>
        </g>
      </g>
    </g>
  </g>
</svg>
